<?xml version="1.0" standalone="no"?>
<!DOCTYPE svg PUBLIC "-//W3C//DTD SVG 20010904//EN"
 "http://www.w3.org/TR/2001/REC-SVG-20010904/DTD/svg10.dtd">
<svg version="1.0" xmlns="http://www.w3.org/2000/svg"
 width="1024.000000pt" height="1024.000000pt" viewBox="0 0 1024.000000 1024.000000"
 preserveAspectRatio="xMidYMid meet">
<metadata>
Created by potrace 1.14, written by Peter Selinger 2001-2017
</metadata>
<g transform="translate(0.000000,1024.000000) scale(0.100000,-0.100000)"
fill="#000000" stroke="none">
<path d="M1890 9743 c-262 -28 -543 -133 -750 -279 -317 -225 -532 -559 -623
-972 l-22 -97 0 -3275 0 -3275 23 -105 c49 -225 137 -429 260 -605 31 -44 108
-132 172 -196 219 -220 477 -357 793 -421 l112 -23 3260 0 c3124 0 3264 1
3360 18 307 57 559 182 785 390 234 216 392 502 467 847 17 82 18 213 18 3365
0 3129 -1 3284 -18 3370 -26 127 -86 304 -142 415 -76 151 -158 264 -290 396
-222 223 -456 349 -792 426 l-98 23 -3240 1 c-1782 0 -3256 -1 -3275 -3z
m2758 -3305 l-3 -2403 -1623 0 -1622 0 0 2121 c0 1330 4 2141 10 2173 42 224
232 425 465 492 56 16 161 18 1418 18 l1357 1 -2 -2402z m3732 2387 c208 -55
385 -220 460 -429 l25 -71 3 -3175 c3 -3545 9 -3244 -68 -3398 -94 -187 -278
-319 -490 -352 -54 -8 -442 -10 -1405 -8 l-1330 3 -3 3723 -2 3722 1377 0
c1171 0 1386 -2 1433 -15z m-3735 -6565 l0 -865 -1350 0 c-1279 0 -1353 1
-1410 18 -217 66 -380 217 -457 422 -22 59 -23 68 -28 673 -3 338 -3 616 -1
618 3 2 734 3 1625 2 l1621 -3 0 -865z"/>
</g>
</svg>
