<?xml version="1.0" encoding="utf-8"?>
<!-- Generator: Adobe Illustrator 25.4.1, SVG Export Plug-In . SVG Version: 6.00 Build 0)  -->
<svg version="1.1" id="Layer_1" xmlns="http://www.w3.org/2000/svg" xmlns:xlink="http://www.w3.org/1999/xlink" x="0px" y="0px"
	 viewBox="0 0 32 32" style="enable-background:new 0 0 32 32;" xml:space="preserve">
<style type="text/css">
	.st0{fill:#495057;}
</style>
<g>
	<path class="st0" d="M5.5,23.8c-2.9,0-5.2-2.3-5.2-5.2V5.4c0-2.9,2.3-5.2,5.2-5.2h13.1c2.9,0,5.2,2.3,5.2,5.2
		c0,0.8-0.7,1.5-1.5,1.5s-1.5-0.7-1.5-1.5c0-1.2-1-2.2-2.2-2.2H5.5c-1.2,0-2.2,1-2.2,2.2v13.1c0,1.2,1,2.2,2.2,2.2
		c0.8,0,1.5,0.7,1.5,1.5S6.3,23.8,5.5,23.8z"/>
	<path class="st0" d="M26.5,31.7H13.4c-2.9,0-5.2-2.3-5.2-5.2V13.3c0-2.9,2.3-5.2,5.2-5.2h13.1c2.9,0,5.2,2.3,5.2,5.2v13.1
		C31.8,29.3,29.4,31.7,26.5,31.7z M13.4,11.1c-1.2,0-2.2,1-2.2,2.2v13.1c0,1.2,1,2.2,2.2,2.2h13.1c1.2,0,2.2-1,2.2-2.2V13.3
		c0-1.2-1-2.2-2.2-2.2H13.4z"/>
</g>
</svg>
