<?xml version="1.0" encoding="utf-8"?>
<!-- Generator: Adobe Illustrator 25.4.1, SVG Export Plug-In . SVG Version: 6.00 Build 0)  -->
<svg version="1.1" id="Layer_1" xmlns="http://www.w3.org/2000/svg" xmlns:xlink="http://www.w3.org/1999/xlink" x="0px" y="0px"
	 viewBox="0 0 29.2 30.2" style="enable-background:new 0 0 29.2 30.2;" xml:space="preserve">
<style type="text/css">
	.st0{fill:#495057;}
</style>
<g id="Layer_2_00000117671126208063458650000015457495845459117696_">
	<g id="Layer_1-2">
		<g>
			<path class="st0" d="M8.4,25v1.1c0,0.5-0.1,1.1-0.3,1.6c-0.2,0.5-0.5,0.9-0.9,1.3c-0.4,0.4-0.8,0.7-1.3,0.9
				c-0.5,0.2-1,0.3-1.6,0.3c-0.5,0-1-0.1-1.5-0.2c-0.5-0.1-1-0.4-1.4-0.7c-0.4-0.4-0.8-0.8-1-1.3c-0.3-0.6-0.4-1.3-0.4-2v-9.8
				c0-0.5,0.1-1.1,0.3-1.6c0.2-0.5,0.5-0.9,0.9-1.3c0.4-0.4,0.8-0.7,1.3-0.9c0.5-0.2,1.1-0.3,1.7-0.3c1.1,0,2.2,0.4,2.9,1.2
				c0.4,0.4,0.7,0.9,0.9,1.4c0.2,0.5,0.3,1.1,0.3,1.7v1H5.9v-0.9c0-0.5-0.1-0.9-0.4-1.3c-0.3-0.4-0.7-0.6-1.2-0.6
				c-0.5-0.1-1,0.2-1.3,0.6c-0.2,0.5-0.3,1-0.3,1.5v9.1c0,0.5,0.1,0.9,0.3,1.3c0.3,0.4,0.7,0.6,1.2,0.5c0.2,0,0.4,0,0.5-0.1
				c0.2-0.1,0.4-0.2,0.5-0.3c0.2-0.2,0.3-0.3,0.4-0.6c0.1-0.3,0.2-0.6,0.2-0.9V25H8.4z"/>
			<path class="st0" d="M18.8,17.4h-2.6v-0.6c0-0.5-0.1-1.1-0.4-1.5c-0.3-0.5-0.8-0.7-1.4-0.6c-0.5,0-1.1,0.2-1.4,0.7
				c-0.1,0.2-0.2,0.5-0.3,0.7c-0.1,0.3-0.1,0.6-0.1,0.9c0,0.3,0,0.6,0,0.9c0,0.2,0.1,0.4,0.2,0.6c0.1,0.2,0.3,0.4,0.4,0.5
				c0.2,0.2,0.5,0.3,0.8,0.4l2,0.8c0.5,0.2,1,0.4,1.4,0.8c0.3,0.3,0.6,0.6,0.8,1c0.2,0.4,0.3,0.9,0.4,1.4c0.1,0.6,0.1,1.2,0.1,1.8
				c0,0.7-0.1,1.4-0.2,2.1c-0.1,0.6-0.4,1.1-0.7,1.6c-0.4,0.5-0.8,0.9-1.4,1.1c-0.7,0.3-1.4,0.4-2.1,0.4c-0.6,0-1.2-0.1-1.7-0.3
				c-0.5-0.2-1-0.5-1.4-0.9c-0.4-0.4-0.7-0.8-0.9-1.3C10.1,27.1,10,26.6,10,26v-0.9h2.6v0.8c0,0.5,0.2,0.9,0.4,1.3
				c0.3,0.4,0.9,0.6,1.4,0.6c0.3,0,0.7,0,1-0.2c0.2-0.1,0.5-0.3,0.6-0.5c0.1-0.3,0.2-0.5,0.2-0.8c0-0.3,0-0.7,0-1.1
				c0-0.4,0-0.8-0.1-1.1c0-0.3-0.1-0.5-0.2-0.7c-0.1-0.2-0.3-0.3-0.5-0.5c-0.2-0.1-0.5-0.3-0.8-0.4l-1.8-0.8
				c-0.9-0.3-1.7-0.9-2.2-1.8c-0.4-0.9-0.6-1.9-0.6-2.8c0-0.6,0.1-1.3,0.3-1.9c0.2-0.6,0.5-1.1,0.8-1.5c0.4-0.4,0.8-0.8,1.3-1
				c0.6-0.3,1.3-0.4,1.9-0.4c1.2,0,2.3,0.5,3.1,1.3c0.7,0.7,1.2,1.7,1.2,2.8V17.4z"/>
			<path class="st0" d="M28.9,17.4h-2.5v-0.6c0-0.5-0.1-1.1-0.4-1.5c-0.3-0.4-0.8-0.7-1.4-0.6c-0.6,0-1.1,0.2-1.4,0.7
				c-0.1,0.2-0.2,0.5-0.3,0.7c0,0.3-0.1,0.6-0.1,0.9c0,0.3,0,0.6,0,0.9c0,0.2,0.1,0.4,0.2,0.6c0.1,0.2,0.3,0.4,0.4,0.5
				c0.2,0.2,0.5,0.3,0.8,0.4l2,0.8c0.5,0.2,1,0.4,1.4,0.8c0.3,0.3,0.6,0.6,0.8,1c0.2,0.4,0.3,0.9,0.4,1.4c0.1,0.6,0.1,1.2,0.1,1.7
				c0,0.7-0.1,1.4-0.2,2.1c-0.1,0.6-0.4,1.2-0.7,1.7c-0.4,0.5-0.8,0.9-1.4,1.1c-0.7,0.3-1.4,0.4-2.1,0.4c-0.6,0-1.2-0.1-1.7-0.3
				c-0.5-0.2-1-0.5-1.4-0.9c-0.4-0.4-0.7-0.8-0.9-1.3c-0.2-0.5-0.3-1.1-0.3-1.7v-0.9h2.5v0.8c0,0.5,0.1,0.9,0.4,1.3
				c0.3,0.4,0.9,0.6,1.4,0.6c0.3,0,0.7,0,1-0.2c0.2-0.1,0.4-0.3,0.6-0.5c0.1-0.3,0.2-0.5,0.2-0.8c0-0.3,0-0.7,0-1.1
				c0-0.4,0-0.8-0.1-1.1c0-0.3-0.1-0.5-0.2-0.7c-0.1-0.2-0.3-0.3-0.5-0.5c-0.2-0.1-0.5-0.3-0.8-0.4L23,21.6
				c-0.9-0.3-1.7-0.9-2.2-1.8c-0.4-0.9-0.6-1.9-0.5-2.8c0-0.6,0.1-1.3,0.3-1.9c0.2-0.6,0.5-1.1,0.8-1.5c0.4-0.4,0.8-0.8,1.3-1
				c0.6-0.3,1.3-0.4,1.9-0.4c0.6,0,1.2,0.1,1.7,0.4c0.5,0.2,1,0.5,1.4,0.9c0.7,0.7,1.2,1.7,1.1,2.8V17.4z"/>
		</g>
		<path class="st0" d="M27.7,10.6c-0.8,0-1.5-0.7-1.5-1.5V5c0-1.1-0.9-2-2-2H5C3.9,3,3,3.9,3,5v4.1c0,0.8-0.7,1.5-1.5,1.5
			S0,9.9,0,9.1V5c0-2.8,2.2-5,5-5h19.2c2.8,0,5,2.2,5,5v4.1C29.3,9.9,28.6,10.6,27.7,10.6C27.7,10.6,27.7,10.6,27.7,10.6z"/>
	</g>
</g>
</svg>
