<?xml version="1.0" encoding="utf-8"?>
<!-- Generator: Adobe Illustrator 26.1.0, SVG Export Plug-In . SVG Version: 6.00 Build 0)  -->
<svg version="1.1" id="Layer_1" xmlns="http://www.w3.org/2000/svg" xmlns:xlink="http://www.w3.org/1999/xlink" x="0px" y="0px"
	 viewBox="0 0 41.9 41.9" style="enable-background:new 0 0 41.9 41.9;" xml:space="preserve">
<style type="text/css">
	.st0{fill:#FFFFFF;}
</style>
<path class="st0" d="M33.5,2H8.4C4.8,2,2,4.8,2,8.4v25.1c0,3.6,2.8,6.4,6.4,6.4h25.1c3.6,0,6.4-2.8,6.4-6.4V8.4
	C39.9,4.8,37.1,2,33.5,2z"/>
<g>
	<path d="M8.4,40.5c-3.9,0-7-3.1-7-7V8.4c0-3.9,3.1-7,7-7h25.1c3.9,0,7,3.1,7,7v25.1c0,3.9-3.1,7-7,7H8.4z M33.6,35.6
		c1.1,0,2.1-1,2.1-2.1V8.4c0-1.1-1-2.1-2.1-2.1H23.4v29.3H33.6z M6.3,33.5c0,1.1,1,2.1,2.1,2.1h10v-5.9H6.3V33.5z M18.4,24.8V6.3
		h-10c-1.1,0-2.1,1-2.1,2.1v16.4H18.4z"/>
	<path class="st0" d="M33.5,2c3.6,0,6.4,2.8,6.4,6.4v25.1c0,3.6-2.8,6.4-6.4,6.4H8.4c-3.6,0-6.4-2.8-6.4-6.4V8.4C2,4.8,4.8,2,8.4,2
		H33.5 M22.8,36.2h10.8c1.5,0,2.7-1.2,2.7-2.7V8.4c0-1.5-1.2-2.7-2.7-2.7H22.8V36.2 M5.7,25.4H19V5.7H8.4c-1.5,0-2.7,1.2-2.7,2.7
		V25.4 M8.4,36.2H19v-7.1H5.7v4.4C5.7,35,6.9,36.2,8.4,36.2 M33.5,0.7H8.4c-4.3,0-7.6,3.4-7.6,7.6v25.1c0,4.3,3.4,7.6,7.6,7.6h25.1
		c4.3,0,7.6-3.4,7.6-7.6V8.4C41.2,4.1,37.8,0.7,33.5,0.7L33.5,0.7z M24,6.9h9.6c0.8,0,1.5,0.7,1.5,1.5v25.1c0,0.8-0.7,1.5-1.5,1.5
		H24V6.9L24,6.9z M6.9,24.2V8.4c0-0.8,0.7-1.5,1.5-1.5h9.4v17.3H6.9L6.9,24.2z M6.9,30.3h10.8V35H8.4c-0.8,0-1.5-0.7-1.5-1.5V30.3
		L6.9,30.3z"/>
</g>
</svg>
