<?xml version="1.0" encoding="utf-8"?>
<!-- Generator: Adobe Illustrator 26.2.1, SVG Export Plug-In . SVG Version: 6.00 Build 0)  -->
<svg version="1.1" id="Layer_1" xmlns="http://www.w3.org/2000/svg" xmlns:xlink="http://www.w3.org/1999/xlink" x="0px" y="0px"
	 viewBox="0 0 32 32" style="enable-background:new 0 0 32 32;" xml:space="preserve">
<style type="text/css">
	.st0{fill:#FFFFFF;}
</style>
<g>
	<path class="st0" d="M2,12.2c-0.8,0-1.5-0.7-1.5-1.5v-5c0-2.9,2.4-5.2,5.3-5.2H11c0.8,0,1.5,0.7,1.5,1.5S11.8,3.5,11,3.5H5.8
		c-1.2,0-2.2,1-2.2,2.2l0,0v5C3.5,11.6,2.8,12.2,2,12.2z"/>
	<path class="st0" d="M10.8,31.5H5.8c-2.9,0-5.2-2.3-5.2-5.2v-5c0-0.8,0.7-1.5,1.5-1.5s1.5,0.7,1.5,1.5v5c0,1.2,1,2.2,2.2,2.2h5.1
		c0.8,0,1.5,0.7,1.5,1.5S11.7,31.5,10.8,31.5z"/>
	<path class="st0" d="M26.2,31.5h-5.1c-0.8,0-1.5-0.7-1.5-1.5s0.7-1.5,1.5-1.5h5.1c1.2,0,2.2-1,2.2-2.2v-5c0-0.8,0.7-1.5,1.5-1.5
		s1.5,0.7,1.5,1.5v5C31.5,29.1,29.1,31.5,26.2,31.5z"/>
	<path class="st0" d="M30,12.2c-0.8,0-1.5-0.7-1.5-1.5V5.8c0-1.2-1-2.2-2.2-2.2H21c-0.8,0-1.5-0.7-1.5-1.5s0.7-1.5,1.5-1.5h5.2
		c2.9,0,5.2,2.3,5.2,5.2v4.9C31.5,11.5,30.8,12.2,30,12.2z"/>
</g>
</svg>
