<?xml version="1.0" encoding="utf-8"?>
<!-- Generator: Adobe Illustrator 25.4.1, SVG Export Plug-In . SVG Version: 6.00 Build 0)  -->
<svg version="1.1" id="Layer_1" xmlns="http://www.w3.org/2000/svg" xmlns:xlink="http://www.w3.org/1999/xlink" x="0px" y="0px"
	 viewBox="0 0 30.9 30.9" style="enable-background:new 0 0 30.9 30.9;" xml:space="preserve">
<style type="text/css">
	.st0{fill:#495057;}
</style>
<g id="Layer_2_00000041975879532690909750000016884182393280915893_">
	<g id="Layer_1-2">
		<path class="st0" d="M25.6,0H5.2C2.3,0,0,2.3,0,5.2v20.4c0,2.9,2.3,5.2,5.2,5.2h20.4c2.9,0,5.2-2.3,5.2-5.2V5.2
			C30.8,2.3,28.5,0,25.6,0z M5.2,3h8.6v16H3V5.2C3,4,4,3,5.2,3z M3,25.6V22h10.8v5.8H5.2C4,27.8,3,26.8,3,25.6z M27.9,25.6
			c0,1.2-1,2.2-2.2,2.2h-8.8V3h8.8c1.2,0,2.2,1,2.2,2.2V25.6z"/>
	</g>
</g>
</svg>
